<svg id="Capa_1" data-name="Capa 1" xmlns="http://www.w3.org/2000/svg" viewBox="0 0 690.02 603.05"><defs><style>.cls-1{fill:#f7f7f7;}.cls-16,.cls-18,.cls-19,.cls-2,.cls-21{fill:none;stroke-miterlimit:10;}.cls-16,.cls-18,.cls-19,.cls-2{stroke:#000;}.cls-2{stroke-width:5px;}.cls-3,.cls-46{font-size:13.53px;font-family:MyriadPro-Bold, Myriad Pro;font-weight:700;}.cls-4{letter-spacing:0.01em;}.cls-5{letter-spacing:0em;}.cls-6{letter-spacing:0em;}.cls-7{letter-spacing:0em;}.cls-8{letter-spacing:0.01em;}.cls-9{letter-spacing:-0.02em;}.cls-10{letter-spacing:-0.03em;}.cls-11{letter-spacing:-0.03em;}.cls-12{letter-spacing:0em;}.cls-13{letter-spacing:-0.02em;}.cls-14{letter-spacing:0em;}.cls-15{letter-spacing:0em;}.cls-16,.cls-18,.cls-19,.cls-21{stroke-width:2px;}.cls-17,.cls-46{fill:#e10015;}.cls-18{stroke-dasharray:2.98 2.98;}.cls-19{stroke-dasharray:3.01 3.01;}.cls-20{fill:#cdcdcd;}.cls-21{stroke:#05c605;}.cls-22{fill:#05c605;}.cls-23{font-size:11.28px;}.cls-23,.cls-28,.cls-31,.cls-37{font-family:MyriadPro-Regular, Myriad Pro;}.cls-24{letter-spacing:-0.02em;}.cls-25{letter-spacing:0em;}.cls-26{letter-spacing:0em;}.cls-27{letter-spacing:0em;}.cls-28{font-size:21.43px;}.cls-29{letter-spacing:-0.04em;}.cls-30{fill:#079dd8;}.cls-31{font-size:7.89px;}.cls-32{letter-spacing:0em;}.cls-33{letter-spacing:0em;}.cls-34{letter-spacing:0em;}.cls-35{letter-spacing:0em;}.cls-36{letter-spacing:-0.01em;}.cls-37{font-size:10.98px;}.cls-38{letter-spacing:-0.03em;}.cls-39{letter-spacing:0.01em;}.cls-40{letter-spacing:0em;}.cls-41{letter-spacing:0em;}.cls-42{letter-spacing:0em;}.cls-43{letter-spacing:-0.03em;}.cls-44{letter-spacing:0em;}.cls-45{letter-spacing:0em;}.cls-47{letter-spacing:0em;}.cls-48{letter-spacing:0em;}.cls-49{letter-spacing:-0.01em;}.cls-50{letter-spacing:-0.01em;}.cls-51{letter-spacing:-0.01em;}.cls-52{letter-spacing:0em;}</style></defs><rect class="cls-1" y="4.53" width="690.02" height="598.52"/><path class="cls-2" d="M349.62,0c-1.84,26.47-3.1,50.11-3.1,54.39s0,11.77-6.21,13.38-6.22,2.14-6.22,7.49,8.81,7.49-3.62,7.49-20.2-.54-21.23,2.14-11.4-4.82-17.09,0-4.66,5.35-5.18,15.52-6.22,6.42-6.22,11.23V132c0,4.28-1,18.23,0,25s-6.45,9.93,10.17,10.41,20.38-1.45,25.3,1.69,5.62,4.84,10.31,5.09,11.71,2.17,16.16,5.8,3.74,8,10.3,9.69,9.14-1.21,11,1.93,3.75,25.9,3.51,33.64-1.17,10.89-1.17,15.49,1.17,14.77-3.28,22.51-6.32,10.41-9.6,12.1-4.86-.24-3.84,8S346,293.09,346,298.08c0,5.33,1.41,4.36-2.57,9.2s-6.79,8-10.07,11.86-12.18,16.7-12.88,17.66-4,17.91-3.52,25.66,2.11,2.9-.7,12.58-4.92,24-12,24.45-10.53.48-10.53,6.29,2.34,9-.71,10.17-13.11,11.37-25.53,9.43-25.76-1-27.63,1.7-1.88,14.28-8.44,15.25-14.05-2.42-14.05,4.59-.94,24.69-.94,31-5.15,16.94,7.73,18.4,36.07,10.4,39.82,10.4,9.13-2.66,9.37,2.18.23,8.71,3.51,13.55,6.56,12.59,6.56,16.22-1.64,20.81,0,26.38,6.26,10.16,8.05,11.62,7.64,11.86,7.64,12.82v13.58"/><text class="cls-3" transform="translate(589.65 126.22)">MENDO<tspan class="cls-4" x="47.14" y="0">Z</tspan><tspan class="cls-5" x="55.06" y="0">A</tspan></text><text class="cls-3" transform="translate(589.86 138.71)">Des<tspan class="cls-6" x="22.44" y="0">p</tspan><tspan x="30.57" y="0">egue</tspan><tspan x="0" y="16.24">14:18</tspan></text><text class="cls-3" transform="translate(504.24 476.42)"><tspan class="cls-7">M</tspan><tspan x="11.41" y="0">A</tspan><tspan class="cls-8" x="20.29" y="0">L</tspan><tspan class="cls-9" x="27.28" y="0">A</tspan><tspan x="35.82" y="0">GÜE</tspan></text><text class="cls-3" transform="translate(56.84 84.19)">SANTI<tspan class="cls-10" x="36.8" y="0">A</tspan><tspan x="45.34" y="0">GO</tspan></text><text class="cls-3" transform="translate(27.58 335.5)">CURI<tspan class="cls-11" x="29.17" y="0">C</tspan><tspan class="cls-12" x="36.81" y="0">O</tspan></text><text class="cls-3" transform="translate(259.62 442.67)"><tspan class="cls-13">P</tspan><tspan x="7.62" y="0">aso </tspan><tspan class="cls-14" x="31.18" y="0">E</tspan><tspan class="cls-15" x="38.46" y="0">l </tspan><tspan x="-5.76" y="16.24">Planchón</tspan></text><path d="M419.78,154.49s20.69-35.3,23.74-35.3,23.12,35.3,23.12,35.3S442.91,159.36,419.78,154.49Z"/><path d="M213.65,92.29S234.35,57,237.39,57s23.13,35.3,23.13,35.3S236.78,97.16,213.65,92.29Z"/><path d="M213.65,92.29S234.35,57,237.39,57s23.13,35.3,23.13,35.3S236.78,97.16,213.65,92.29Z"/><path d="M213.65,189.18s20.7-35.3,23.74-35.3,23.13,35.3,23.13,35.3S236.78,194.05,213.65,189.18Z"/><g id="v0Jh6X"><path d="M625.75,95.48l11.78-.59v-.14l-8.41-.62,1-.58,19-10.84a4.29,4.29,0,0,1,3.21-.4c1.3.28,2.6.54,3.89.87a2.44,2.44,0,0,1,1.3,4,36.28,36.28,0,0,1-8.45,7c-3.9,2.2-7.79,4.42-11.7,6.62-1.76,1-3.52,2-5.33,2.9a21,21,0,0,1-7.61,1.81c-3.17.29-6.34.65-9.51,1a6.66,6.66,0,0,1-1.18,0,1.56,1.56,0,0,1-1.42-1.17.58.58,0,0,0-.64-.47l-7.59-.29-6.58-.25-.32,0a6.57,6.57,0,0,1,3.46-.77c4.12-.15,8.25-.29,12.37-.45a1.24,1.24,0,0,0,.54-.11c1.29-.73,2.57-1.47,3.86-2.33-.57-.07-1.14-.15-1.72-.2l-15.77-1.57-13-1.28-5.31-.55a.74.74,0,0,1-.45-.24c-.44-.59-.84-1.2-1.25-1.79a.88.88,0,0,1,1.22-.37,14.14,14.14,0,0,0,5.94.92c9,0,18.08.17,27.12.19,3.45,0,6.9-.18,10.35-.25"/><path d="M637.21,101.74l4.84-2.48c1.92-1,3.83-2,5.75-2.94a1.6,1.6,0,0,1,1-.17,49.07,49.07,0,0,0,7.84.65c2.54.14,5.09.21,7.63.36a.93.93,0,0,0,1.07-.64c.35-.78.41-.77,1.09-.29l1.4,1-.59.27c-1.55.58-3.07,1.23-4.64,1.72a14.91,14.91,0,0,1-2.93.45c-5,.51-10.07,1-15.1,1.47l-7.28.67Z"/><path d="M616.78,94.35c-1.76.22-3.39.44-5,.63a.56.56,0,0,1-.46-.31c-.44-1.29-.84-2.59-1.29-3.88a.59.59,0,0,1,.29-.8c.43-.25.83-.57,1.28-.79a.71.71,0,0,1,.68.08C613.76,90.92,615.22,92.59,616.78,94.35Z"/></g><g id="_6jpx1F" data-name="6jpx1F"><path d="M568.74,272.14l3.91,1.89c1.78.86,3.57,1.71,5.35,2.58.22.11.34.11.49-.09s.39-.35.5-.57c.33-.67.8-.67,1.44-.46s1.46.39,2.19.56c.24.06.36.15.39.41,0,.41.14.82.21,1.24,0,.21.1.32.37.34l8.27.39,2,.12c-.06.37-.09.71-.16,1.05a.47.47,0,0,1-.25.27l-2.31.73-6.51,2c-.5.16-1,.31-1.52.45a.56.56,0,0,0-.45.48q-1.81,7.79-3.66,15.57c-.46,2-.94,3.95-1.4,5.92,0,.08,0,.16-.06.33l29.88,1.44c-.05.37-.08.71-.13,1.05-.1.63-.21,1.27-.3,1.9,0,.26-.16.34-.38.4l-7,2.17L594.4,314a.53.53,0,0,0-.3.34c-.2.7-.37,1.41-.56,2.11a1.63,1.63,0,0,1-2,1.2,1.59,1.59,0,0,1-1.21-2c0-.12.06-.24.11-.41l-2.37.72c-.88.27-1.75.57-2.64.82a.48.48,0,0,0-.39.41c-.17.72-.36,1.44-.55,2.15a1.59,1.59,0,0,1-2.06,1.25,1.61,1.61,0,0,1-1.17-1.87c0-.21.1-.41.17-.68-.47.13-.88.24-1.28.37l-5.72,1.78a.67.67,0,0,0-.55.57c-.72,3.19-1.48,6.37-2.2,9.56a7.49,7.49,0,0,1-1.2,2.61,13.17,13.17,0,0,1-2.77,3,7,7,0,0,1-.81.52,1.62,1.62,0,0,1-2.42-.67,12.16,12.16,0,0,1-1-2.53,9.12,9.12,0,0,1-.33-4c.21-1.08.55-2.14.83-3.21q1-3.75,2-7.5a.62.62,0,0,0-.13-.47q-1.73-1.8-3.47-3.57c-.54-.56-1.09-1.11-1.69-1.72a2.8,2.8,0,0,0-.14.45,1.69,1.69,0,0,1-2.18,1.26,1.56,1.56,0,0,1-1-1.75c.16-.75.34-1.5.53-2.24a.76.76,0,0,0-.22-.87c-1.14-1.13-2.23-2.31-3.35-3.46a1.4,1.4,0,0,0-.16-.14l-.11.37a1.67,1.67,0,0,1-2,1.24,1.68,1.68,0,0,1-1.15-2.07c.17-.68.35-1.36.5-2a.55.55,0,0,0-.11-.47c-1.49-1.56-3-3.11-4.52-4.66-1.34-1.39-2.65-2.82-4-4.16a1.07,1.07,0,0,1-.3-1.42c.32-.71.54-1.47.83-2.28l26.87,13c.19-.76.37-1.48.56-2.19q2.58-9.61,5.18-19.25a1,1,0,0,0-.29-1.19c-2.11-2.12-4.17-4.28-6.25-6.43l-.25-.22C568.24,273.4,568.22,273.27,568.74,272.14Z"/></g><g id="_6jpx1F-2" data-name="6jpx1F"><path d="M412.43,431.05l-2.36,3.63c-1.08,1.67-2.15,3.34-3.23,5-.13.2-.16.32,0,.49s.3.43.5.56c.63.42.57.89.28,1.49a22.53,22.53,0,0,0-.83,2.11.42.42,0,0,1-.45.33c-.42,0-.84,0-1.26,0-.22,0-.34.06-.38.33-.46,2.72-1,5.44-1.42,8.16-.12.66-.25,1.31-.37,2a10.32,10.32,0,0,1-1-.29.41.41,0,0,1-.23-.27c-.16-.8-.29-1.6-.44-2.39-.4-2.24-.81-4.47-1.21-6.71-.09-.52-.17-1-.25-1.57a.57.57,0,0,0-.42-.5l-15-5.57-5.7-2.13-.32-.1c-1.72,9.82-3.43,19.61-5.15,29.46l-1-.25c-.62-.18-1.23-.37-1.85-.53-.25-.07-.31-.21-.35-.44-.42-2.4-.86-4.81-1.28-7.21-.32-1.8-.62-3.6-.95-5.4a.52.52,0,0,0-.29-.33c-.67-.29-1.35-.54-2-.81a1.64,1.64,0,0,1-.95-2.1,1.6,1.6,0,0,1,2.15-1l.4.15c-.15-.85-.28-1.64-.42-2.43s-.35-1.81-.49-2.72a.47.47,0,0,0-.35-.44c-.7-.27-1.39-.54-2.07-.82a1.59,1.59,0,0,1-1-2.2,1.62,1.62,0,0,1,2-.92c.2.06.39.15.65.25-.08-.48-.13-.9-.2-1.32-.35-2-.72-3.93-1.06-5.89a.67.67,0,0,0-.5-.62l-9.21-3.38a7.27,7.27,0,0,1-2.44-1.52,12.72,12.72,0,0,1-2.63-3.12,6.23,6.23,0,0,1-.42-.86,1.63,1.63,0,0,1,1-2.32,11.84,11.84,0,0,1,2.62-.66,9.14,9.14,0,0,1,4,.18c1.05.34,2.06.81,3.08,1.22,2.4,1,4.8,2,7.2,2.92a.63.63,0,0,0,.48-.07c1.33-1,2.65-2,4-3l1.92-1.46a3.9,3.9,0,0,0-.44-.2,1.67,1.67,0,0,1-1-2.31,1.56,1.56,0,0,1,1.86-.82q1.08.38,2.16.81a.76.76,0,0,0,.89-.11c1.26-1,2.56-1.93,3.85-2.89l.15-.15-.34-.15a1.68,1.68,0,0,1-1-2.16,1.7,1.7,0,0,1,2.21-.89c.65.25,1.29.52,1.95.76a.64.64,0,0,0,.49-.05c1.73-1.29,3.45-2.61,5.18-3.91,1.55-1.16,3.13-2.28,4.63-3.5a1.07,1.07,0,0,1,1.45-.12c.67.41,1.39.72,2.16,1.1l-16.26,25,2.1.82,18.46,7.54a1,1,0,0,0,1.22-.14c2.36-1.83,4.76-3.6,7.15-5.39a2.73,2.73,0,0,0,.25-.23C411.24,430.39,411.38,430.38,412.43,431.05Z"/></g><g id="_6jpx1F-3" data-name="6jpx1F"><path d="M267,383.54l-2.36,3.64-3.23,5c-.13.2-.16.32,0,.49s.3.43.5.57c.63.41.57.88.28,1.48a22.53,22.53,0,0,0-.83,2.11.42.42,0,0,1-.45.33c-.42,0-.84,0-1.26.06-.22,0-.34.06-.38.32-.46,2.72-.95,5.44-1.42,8.16-.12.66-.25,1.31-.37,2-.36-.1-.7-.18-1-.29a.46.46,0,0,1-.23-.28c-.16-.8-.29-1.59-.44-2.39-.4-2.23-.81-4.47-1.21-6.71-.09-.52-.17-1-.25-1.57a.57.57,0,0,0-.42-.5l-15-5.57-5.7-2.13-.32-.09c-1.72,9.81-3.43,19.6-5.15,29.45l-1-.25c-.61-.17-1.23-.37-1.85-.53-.25-.07-.31-.21-.35-.44-.42-2.4-.86-4.8-1.28-7.21-.32-1.8-.62-3.6-.95-5.39a.52.52,0,0,0-.29-.34c-.67-.29-1.35-.54-2-.81a1.64,1.64,0,0,1-.95-2.1,1.61,1.61,0,0,1,2.15-.95l.4.16c-.15-.85-.28-1.65-.42-2.44s-.35-1.81-.49-2.72a.47.47,0,0,0-.35-.44q-1-.39-2.07-.81a1.61,1.61,0,0,1-1-2.21,1.62,1.62,0,0,1,2-.92c.2.06.39.15.65.25-.07-.48-.13-.9-.2-1.32-.35-2-.72-3.92-1.06-5.89a.67.67,0,0,0-.5-.62L209,379.24a7.24,7.24,0,0,1-2.44-1.51,13.1,13.1,0,0,1-2.63-3.12,7,7,0,0,1-.42-.87,1.63,1.63,0,0,1,1-2.32,12.42,12.42,0,0,1,2.62-.66,9.14,9.14,0,0,1,4,.18c1,.34,2.06.81,3.08,1.23l7.2,2.91a.59.59,0,0,0,.48-.07l4-3,1.92-1.47a2.53,2.53,0,0,0-.44-.19,1.69,1.69,0,0,1-1-2.32,1.56,1.56,0,0,1,1.86-.82q1.08.38,2.16.81a.76.76,0,0,0,.89-.11c1.26-1,2.56-1.93,3.85-2.89l.15-.14-.34-.16a1.68,1.68,0,0,1-1-2.16,1.7,1.7,0,0,1,2.21-.89c.65.26,1.3.53,2,.76a.64.64,0,0,0,.49-.05c1.73-1.29,3.45-2.6,5.18-3.9,1.55-1.17,3.13-2.28,4.63-3.5a1.06,1.06,0,0,1,1.45-.13c.67.41,1.39.72,2.16,1.11l-16.26,25c.73.29,1.42.55,2.1.83q9.22,3.75,18.46,7.54a1,1,0,0,0,1.22-.14c2.36-1.83,4.76-3.61,7.15-5.4l.25-.22C265.84,382.88,266,382.88,267,383.54Z"/></g><g id="_6jpx1F-4" data-name="6jpx1F"><path d="M289.12,284.84l-3.5-2.56-4.81-3.5c-.19-.14-.31-.18-.49,0s-.45.27-.59.47c-.45.6-.92.52-1.5.2a22.55,22.55,0,0,0-2.06-.95.42.42,0,0,1-.31-.47c0-.42,0-.84,0-1.26,0-.22,0-.34-.3-.4-2.7-.61-5.38-1.24-8.07-1.87l-2-.48c.11-.35.21-.69.34-1a.46.46,0,0,1,.29-.22c.8-.11,1.61-.2,2.41-.3l6.76-.83c.53-.07,1.06-.12,1.59-.17a.56.56,0,0,0,.52-.39q3.19-7.34,6.4-14.66c.81-1.86,1.63-3.71,2.44-5.57a1.86,1.86,0,0,0,.11-.32l-29.12-6.78c.11-.35.2-.68.31-1,.21-.61.43-1.21.63-1.83.08-.24.23-.29.46-.32l7.27-.88,5.44-.64a.54.54,0,0,0,.35-.28c.32-.65.61-1.32.92-2a1.65,1.65,0,0,1,2.15-.83,1.61,1.61,0,0,1,.83,2.2l-.18.39,2.46-.29c.91-.11,1.82-.24,2.74-.33a.47.47,0,0,0,.46-.33c.3-.68.61-1.35.93-2a1.64,1.64,0,0,1,3.06,1.19c-.07.2-.17.38-.29.64l1.33-.13c2-.24,4-.5,5.94-.72a.7.7,0,0,0,.65-.47c1.29-3,2.6-6,3.88-9a7.51,7.51,0,0,1,1.65-2.35,13,13,0,0,1,3.27-2.45,5.38,5.38,0,0,1,.89-.37,1.62,1.62,0,0,1,2.26,1.1,12.63,12.63,0,0,1,.51,2.66,9,9,0,0,1-.41,4c-.39,1-.92,2-1.39,3-1.1,2.34-2.21,4.67-3.31,7a.58.58,0,0,0,0,.48c.91,1.39,1.84,2.77,2.76,4.14l1.36,2a4.41,4.41,0,0,0,.22-.42,1.69,1.69,0,0,1,2.37-.85,1.55,1.55,0,0,1,.71,1.9c-.29.72-.6,1.42-.93,2.12a.77.77,0,0,0,.06.9c.92,1.31,1.79,2.66,2.67,4l.14.16.17-.34a1.65,1.65,0,1,1,3,1.39c-.29.64-.6,1.27-.87,1.91a.64.64,0,0,0,0,.49l3.61,5.39c1.08,1.61,2.11,3.26,3.24,4.82a1.07,1.07,0,0,1,0,1.46c-.44.64-.79,1.34-1.22,2.09-8-5.87-16-11.71-24.1-17.63-.32.71-.62,1.39-.94,2q-4.28,9-8.56,18a1.06,1.06,0,0,0,.08,1.23c1.69,2.46,3.33,4.95,5,7.44.06.09.14.17.21.26C289.84,283.69,289.84,283.83,289.12,284.84Z"/></g><line x1="589.86" y1="241.32" x2="607.2" y2="170.84"/><line class="cls-16" x1="590.4" y1="239.1" x2="607.2" y2="170.84"/><polygon points="594.65 236.04 590.54 238.52 588.06 234.42 587.37 237.22 589.86 241.32 593.96 238.84 594.65 236.04"/><line x1="539.98" y1="440.68" x2="557.33" y2="370.2"/><line class="cls-16" x1="540.53" y1="438.46" x2="557.33" y2="370.2"/><polygon points="544.77 435.4 540.67 437.89 538.19 433.78 537.5 436.58 539.98 440.68 544.09 438.2 544.77 435.4"/><line x1="424.36" y1="446.58" x2="493.31" y2="470.32"/><line class="cls-16" x1="426.52" y1="447.33" x2="493.31" y2="470.32"/><polygon points="429.18 451.83 427.08 447.52 431.39 445.42 428.67 444.48 424.36 446.58 426.46 450.89 429.18 451.83"/><line x1="267.44" y1="398.58" x2="336.8" y2="421.1"/><line class="cls-16" x1="269.62" y1="399.28" x2="336.8" y2="421.1"/><polygon points="272.36 403.74 270.18 399.46 274.45 397.29 271.71 396.4 267.44 398.58 269.62 402.85 272.36 403.74"/><line x1="270.1" y1="295.54" x2="251.74" y2="343.94"/><line class="cls-16" x1="269.29" y1="297.68" x2="251.74" y2="343.94"/><polygon points="264.71 300.2 269.08 298.23 271.05 302.61 272.07 299.91 270.1 295.54 265.73 297.51 264.71 300.2"/><g id="Vdmd77"><path class="cls-17" d="M288.93,201.25l15.26-2.12c1.14-.16,1.55.23,1.39,1.35-.38,2.74-.77,5.47-1.15,8.21-.17,1.17-.3,2.34-.47,3.67,3.33-2.06,6.48-4,9.62-6,1.4-.87,1.82-.72,2.29.88q1.5,5.11,3,10.23c.38,1.27.76,2.53,1.18,3.95a4.17,4.17,0,0,0,.25-.46q3-6.66,5.9-13.31c.59-1.35,1.13-1.45,2.19-.38q3.06,3.07,6.09,6.16c1,1,1.95,2.06,2.93,3.09a1.09,1.09,0,0,0,.2-.69c-.28-3.67-.55-7.34-.84-11-.14-1.64.26-2,1.74-1.46l12.1,4.38c.22.08.45.13.81.23-2.46-3.79-4.84-7.44-7.2-11.1-.69-1.06-.51-1.5.7-1.81l7.77-2,3.84-1-.82-.53-9-5.61c-1-.62-1-1.27,0-1.85l9.84-5.91,2.05-1.25a.57.57,0,0,0-.46-.18c-4.33-.07-8.66-.13-13-.24a1.42,1.42,0,0,1-1.07-.54c-.13-.22.11-.77.33-1.07.64-.84,1.35-1.63,2-2.45,1.48-1.77,3-3.54,4.51-5.41l-.39.05-10.51,2.65c-1.38.35-1.87-.14-1.5-1.47.45-1.64.91-3.28,1.35-4.93.56-2,1.1-4.06,1.69-6.28l-.76.59c-3,2.43-5.91,4.86-8.88,7.28-.85.7-1.48.48-1.72-.57-.2-.89-.37-1.79-.56-2.68l-1.54-7.29c-.17.29-.27.43-.34.57-1.41,2.88-2.83,5.76-4.23,8.64-.51,1-1.1,1.12-1.85.25q-2.56-2.92-5.11-5.86L313,153.9c.54,3.76,1,7.26,1.52,10.77.06.43,0,1.13-.21,1.26a1.74,1.74,0,0,1-1.37-.09c-3.07-1.49-6.11-3-9.16-4.57l-1.92-.94,1.71,3.94c.94,2.15,1.91,4.29,2.81,6.47a1.35,1.35,0,0,1-.12,1.11c-.13.18-.66.09-1,.07s-.44-.14-.67-.17c-3.43-.53-6.86-1.06-10.29-1.57-1.35-.2-2.7-.38-4.05-.57a1,1,0,0,0,.36.55l8.84,8.4c1.16,1.1,1,1.63-.43,2.11l-7.56,2.41c-1.07.34-2.13.7-3.36,1.1l11.59,4.6c1.14.45,1.24,1,.35,1.88l-7,6.62C291.74,198.55,290.41,199.83,288.93,201.25Z"/></g><line x1="79.96" y1="338.11" x2="190.56" y2="371.02"/><line class="cls-16" x1="82.15" y1="338.76" x2="83.59" y2="339.19"/><line class="cls-18" x1="86.44" y1="340.04" x2="187.7" y2="370.17"/><line class="cls-16" x1="189.12" y1="370.6" x2="190.56" y2="371.02"/><polygon points="85 343.15 82.72 338.93 86.94 336.65 84.18 335.83 79.96 338.11 82.24 342.33 85 343.15"/><line x1="87.9" y1="98.28" x2="60.98" y2="303.78"/><line class="cls-16" x1="87.6" y1="100.55" x2="87.41" y2="102.03"/><line class="cls-19" x1="87.02" y1="105.02" x2="61.37" y2="300.8"/><line class="cls-16" x1="61.18" y1="302.3" x2="60.98" y2="303.78"/><polygon points="83.72 104.06 87.53 101.13 90.45 104.94 90.82 102.08 87.9 98.28 84.1 101.2 83.72 104.06"/><line class="cls-20" x1="104.84" y1="110" x2="213.65" y2="354.63"/><line class="cls-21" x1="105.77" y1="112.09" x2="213.65" y2="354.63"/><polygon class="cls-22" points="104.29 117.11 106.01 112.63 110.49 114.35 109.32 111.72 104.84 110 103.12 114.48 104.29 117.11"/><text class="cls-23" transform="translate(133.22 203.13) rotate(65.85)"><tspan class="cls-24">V</tspan><tspan x="6.11" y="0">iaje hacia </tspan><tspan class="cls-25" x="52.18" y="0">S</tspan><tspan class="cls-26" x="57.78" y="0">a</tspan><tspan class="cls-27" x="63.21" y="0">n</tspan><tspan x="69.43" y="0">tiago</tspan></text><text class="cls-28" transform="translate(75.71 535.52)">C H I L E</text><text class="cls-28" transform="translate(404.32 549.73)">A R G E N<tspan class="cls-29" x="81.3" y="0"> </tspan><tspan x="84.96" y="0">T I N A</tspan></text><g id="pyTMhS"><path class="cls-30" d="M214.46,251.66c5.89,0,11.79,0,17.68,0a19.11,19.11,0,0,0,3.38-.27,7.49,7.49,0,0,0,4.78-3.12,8,8,0,0,0,1.42-7,8.54,8.54,0,0,0-8.13-6.5,1.49,1.49,0,1,1,0-3,11.26,11.26,0,0,1,6.85,2.39,11,11,0,0,1,4.39,7.76,11.15,11.15,0,0,1-4.41,10.41,10.47,10.47,0,0,1-6.53,2.25c-4.62.07-9.25.09-13.88.09-1.18,0-2.36,0-3.55,0s-2.37,0-3.56,0H195a1.55,1.55,0,0,1-1.13-.37,1.49,1.49,0,0,1-.43-1.62,1.52,1.52,0,0,1,1.35-1h19.7Z"/><path class="cls-30" d="M193.39,258.15a1.31,1.31,0,0,1,1-1.75,2.88,2.88,0,0,1,.59,0h21.79c5.15,0,10.31,0,15.46,0a6.35,6.35,0,0,1,6.44,5.39,6.1,6.1,0,0,1-1.21,4.8,6.59,6.59,0,0,1-11.27-1.4,1.4,1.4,0,0,1,1.35-2.08,1.35,1.35,0,0,1,1.18.86,6.64,6.64,0,0,0,.63,1.18,3,3,0,0,0,2.08,1.17,3.7,3.7,0,0,0,4.33-2.35,3.61,3.61,0,0,0-3.18-4.77H195a3.71,3.71,0,0,1-.65-.12Z"/><path class="cls-30" d="M210.25,247.16c5.05,0,10.1,0,15.15,0a3.66,3.66,0,0,0,3.56-2.65,3.62,3.62,0,0,0-3-4.51,4,4,0,0,0-3,.68,3.32,3.32,0,0,0-1.09,1.52,1.41,1.41,0,0,1-1.45,1,1.38,1.38,0,0,1-1.24-1.8,6.18,6.18,0,0,1,5.77-4.27,6.48,6.48,0,0,1,5.1,2,6.06,6.06,0,0,1,1.75,4.11,6.13,6.13,0,0,1-3.78,6.1,5.26,5.26,0,0,1-2.2.52c-3.64.06-7.28,0-10.92,0H196c-.41,0-.82,0-1.22,0a1.33,1.33,0,0,1-1.3-1.48,1.37,1.37,0,0,1,1.39-1.29h15.42Z"/><path class="cls-30" d="M193.39,258.15l.92.87A1,1,0,0,1,193.39,258.15Z"/></g><text class="cls-31" transform="translate(194.31 280.63)"><tspan class="cls-32">D</tspan><tspan x="5.29" y="0">e</tspan><tspan class="cls-32" x="9.24" y="0">r</tspan><tspan x="11.86" y="0">i</tspan><tspan class="cls-33" x="13.71" y="0">v</tspan><tspan class="cls-34" x="17.47" y="0">ada por </tspan><tspan x="0" y="7.9">vie</tspan><tspan class="cls-35" x="9.6" y="7.9">n</tspan><tspan class="cls-36" x="13.95" y="7.9">t</tspan><tspan x="16.52" y="7.9">o cruzado</tspan></text><text class="cls-37" transform="translate(429.64 175.19)"><tspan class="cls-38">V</tspan><tspan x="5.76" y="0">olcán </tspan><tspan class="cls-39"><tspan x="-5.97" y="10.98">S</tspan><tspan class="cls-40" x="-0.49" y="10.98">osneado</tspan></tspan></text><text class="cls-37" transform="translate(222.23 204.85)"><tspan class="cls-38">V</tspan><tspan x="5.76" y="0">olcán </tspan><tspan x="-8.33" y="10.98">tingui</tspan><tspan class="cls-41" x="18.73" y="10.98">r</tspan><tspan class="cls-42" x="22.36" y="10.98">i</tspan><tspan class="cls-41" x="24.93" y="10.98">r</tspan><tspan x="28.56" y="10.98">ica</tspan></text><text class="cls-37" transform="translate(223.08 111.23)"><tspan class="cls-38">V</tspan><tspan x="5.76" y="0">olcán </tspan><tspan class="cls-43" x="-0.82" y="10.98">P</tspan><tspan x="4.74" y="10.98">alomo</tspan></text><text class="cls-3" transform="translate(504.93 492.24)"><tspan class="cls-44">N</tspan><tspan x="9.3" y="0">otifi</tspan><tspan class="cls-45" x="33.74" y="0">c</tspan><tspan class="cls-5" x="39.9" y="0">ación</tspan><tspan x="0" y="16.24">15:08</tspan></text><text class="cls-3" transform="translate(387.72 377.22)"><tspan class="cls-44">N</tspan><tspan x="9.3" y="0">otifi</tspan><tspan class="cls-45" x="33.74" y="0">c</tspan><tspan class="cls-5" x="39.9" y="0">ación</tspan><tspan x="0" y="16.24">15:21</tspan></text><text class="cls-46" transform="translate(139.63 393.46)">Última<tspan class="cls-47" x="0" y="16.24">N</tspan><tspan x="9.3" y="16.24">otifi</tspan><tspan class="cls-48" x="33.74" y="16.24">c</tspan><tspan x="39.9" y="16.24">ación</tspan><tspan x="0" y="32.48">15:24</tspan></text><text class="cls-46" transform="translate(333.01 134.8)"><tspan class="cls-49">A</tspan><tspan class="cls-50" x="8.69" y="0">c</tspan><tspan x="14.64" y="0">cide</tspan><tspan class="cls-51" x="39.67" y="0">n</tspan><tspan class="cls-52" x="47.52" y="0">t</tspan><tspan x="52.42" y="0">e</tspan><tspan x="0" y="16.24">15:31</tspan></text></svg>